<svg viewBox="0 0 347 347" xmlns="http://www.w3.org/2000/svg"><path d="m169.72 32.99c1.36-9.97 1.06-20.08 2.76-30.01 1.6 12.09 1.29 24.36 3.25 36.41 1.59 13.53 4.56 26.85 8.02 40 5.87 21.31 15.19 42.15 30.25 58.59 5.2 5.85 11.42 10.74 16.31 16.87-18.69 5.23-36.94 14.87-48.83 30.62-4.23 5.22-6.34 11.67-9.52 17.51-3.71-12.92-12.33-24.02-23.2-31.76-10.55-7.48-22.38-13.35-34.99-16.37 2.82-3.83 6.48-6.9 9.82-10.26 5.77-5.58 11.06-11.66 15.74-18.19 11.77-17.08 19.01-36.82 23.96-56.84 2.57-12.11 5.13-24.25 6.43-36.57" fill="#f4434a"/><g fill="#fff"><path d="m150.86 133.92c7.37-.47 14.76-.16 22.14-.21 7.06.13 14.13-.17 21.19.21-3.14 4.54-7.03 8.49-10.49 12.77-3.73 4.41-7.22 9.04-11.4 13.04-7.6-8.21-14.72-16.88-21.44-25.81"/><path d="m31.9 148.49c10.65-1.22 21.39-1.16 32.09-1.06 16.84.22 33.46 3.44 49.78 7.42 12.61 3.02 24.44 8.89 34.99 16.37 10.87 7.74 19.49 18.84 23.2 31.76 3.18-5.84 5.29-12.29 9.52-17.51 11.89-15.75 30.14-25.39 48.83-30.62 9.35-2.09 18.64-4.61 28.2-5.65 13.39-2.07 26.96-1.93 40.47-1.73 15.47.28 30.77 2.9 46.04 5.15-5.27.89-10.62 1.08-15.89 1.91-35.2 5.52-68.21 22.26-94.64 45.98-10.22 9.55-19.77 19.92-27.44 31.66-4.86 7.53-10.26 14.84-13.46 23.29-2.82 7.1-6.36 13.92-8.56 21.26-2.22 7.33-4.2 14.74-5.81 22.22-3.38 14.58-4.72 29.52-6.77 44.31-1.46-5.77-1.39-11.78-2.25-17.65-2.58-19.35-6.3-38.66-12.99-57.06-2.46-6.88-5.96-13.33-8.94-19.99-2.78-6.43-7.19-11.91-10.95-17.75-15.67-23.15-37.21-42.06-61.52-55.73-18.56-10.23-38.8-17.66-59.83-20.62-5-.75-10.06-.92-15.06-1.71 10.3-1.64 20.63-3.1 30.99-4.25" stroke="#000" stroke-width=".2"/></g></svg>