<svg viewBox="0 51 1524 350" xmlns="http://www.w3.org/2000/svg"><path d="m169.72 87.99c1.36-9.97 1.06-20.08 2.76-30.01 1.6 12.09 1.29 24.36 3.25 36.41 1.59 13.53 4.56 26.85 8.02 40 5.87 21.31 15.19 42.15 30.25 58.59 5.2 5.85 11.42 10.74 16.31 16.87-18.69 5.23-36.94 14.87-48.83 30.62-4.23 5.22-6.34 11.67-9.52 17.51-3.71-12.92-12.33-24.02-23.2-31.76-10.55-7.48-22.38-13.35-34.99-16.37 2.82-3.83 6.48-6.9 9.82-10.26 5.77-5.58 11.06-11.66 15.74-18.19 11.77-17.08 19.01-36.82 23.96-56.84 2.57-12.11 5.13-24.25 6.43-36.57m-18.86 100.93c6.72 8.93 13.84 17.6 21.44 25.81 4.18-4 7.67-8.63 11.4-13.04 3.46-4.28 7.35-8.23 10.49-12.77-7.06-.38-14.13-.08-21.19-.21-7.38.05-14.77-.26-22.14.21" fill="#f4434a"/><path d="m759.86 144.86c10.04-.45 20.09-.06 30.14-.18 7.89.15 15.81-.4 23.69.32-.02 28-.01 56-.01 84 0 6-.16 12 .21 18 8.88-8.82 19.33-16.69 31.68-19.71 8.91-2.6 18.3-2.59 27.48-1.95 8.82.66 17.3 3.61 25.22 7.43 14.75 7.51 26.49 20.25 33.76 35.04 4.78 10.11 7.94 21.03 9.09 32.16 1.03 14.56.45 29.56-4.62 43.4-5.36 16.63-15.77 31.88-30.31 41.77-8.54 6.19-18.63 10.01-28.95 11.91-13.2 1.9-27.02 1.22-39.53-3.68-6.8-2.78-13.5-6.11-18.98-11.07-3.51-3.1-6.06-7.07-9.29-10.42-.29 7.02.26 14.05-.26 21.06-16.44.17-32.88.18-49.32 0-.4-6.64-.14-13.29-.18-19.94-.01-70.67 0-141.33 0-212-.03-5.38-.14-10.77.18-16.14m83.51 124.77c-11.06 2.18-20.77 9.68-26.24 19.47-7.7 13.47-7.59 31.09.37 44.42 6.59 11.37 19.11 19.57 32.46 19.45 11.75.51 23.63-4.91 30.73-14.33 9.64-12.63 11.18-30.36 5.82-45.07-4.52-12.97-16.87-22.69-30.48-24.27-4.21-.44-8.49-.4-12.66.33m459.03-121.92c9.75-2.13 20.46.34 28.11 6.8 6.13 5.34 10.24 13.24 10.02 21.49.57 11.24-6.57 22.17-16.72 26.79-7.1 3.48-15.42 4.06-23.06 2.2-9.69-2.52-17.59-10.4-20.78-19.81-3.12-10-.47-21.74 7.26-28.96 4.3-3.93 9.47-7.11 15.17-8.51m-879.2 8.69c17.5-3.33 35.83-3.55 53.1 1.15 17.8 4.39 35.19 12.37 48.29 25.45-3.03 3.81-6.39 7.33-9.78 10.82-8.66 8.91-16.85 18.28-25.69 27.01-4.4-4.27-8.69-8.79-14.06-11.85-10-5.68-21.59-8.96-33.15-7.76-8.9.37-18.06 3.95-23.43 11.33-3.89 5.28-4.25 12.5-2.44 18.63 2.56 6.98 9.59 10.85 16.04 13.64 16.2 6.58 33.22 10.93 49.31 17.8 13.6 5.94 25.99 15.34 33.97 27.99 4.46 6.97 7.01 15.08 7.64 23.32.92 11.76.02 23.84-4.06 34.98-4.48 12.26-12.32 23.39-22.79 31.24-6.72 4.96-14 9.23-21.88 12.05-11.5 4.14-23.69 6.04-35.85 6.8h-7.86c-6.07-.33-12.14-.83-18.17-1.64-14.81-2.25-29.11-7.38-42.31-14.39-8.43-4.88-16.47-10.67-23.02-17.92 5.78-6.54 12.21-12.45 18.18-18.81 6.21-6.14 11.89-12.82 18.57-18.47 4.55 4.28 8.88 8.86 14.15 12.28 10.95 7.19 23.8 12.19 37.06 11.91 8.54-.05 17.72-1.77 24.24-7.69 6.25-5.67 8.34-14.92 6.4-22.97-1.15-4.52-4.28-8.26-7.85-11.13-5.83-4.67-12.8-7.59-19.77-10.08-9.45-3.4-19.24-5.8-28.58-9.51-8.79-3.52-17.87-6.76-25.49-12.53-9.65-6.72-17.25-16.27-21.71-27.14-3.16-7.88-3.79-16.49-3.76-24.9.03-8.07 1.02-16.23 3.89-23.83 5.56-14.9 16.99-27.2 30.73-35.01 9.33-5.23 19.54-8.91 30.08-10.77m741.64 29.59c9.71-.35 19.44-.04 29.16-.14 7.89.12 15.8-.32 23.68.28.1 14.26-.32 28.54.16 42.79 12.72.3 25.45-.13 38.18.16.22 13.28.23 26.58-.01 39.86-12.72.34-25.44-.11-38.16.17-.5 19.29-.04 38.6-.23 57.89.04 7.24-.35 15.2 3.95 21.45 2.48 3.83 6.99 5.78 11.4 6.22 7.03.7 14.26.24 20.96-2.16.02 8.17.19 16.33.35 24.5.03 5.17.51 10.38-.43 15.5-9.4 2.59-19.06 4.51-28.84 4.47-12.26.37-24.87-1.33-35.87-7.01-8.49-4.21-14.99-11.82-18.68-20.46-3.66-8.68-5.37-18.1-5.44-27.5-.21-24.29.1-48.59-.14-72.89-8.68-.31-17.37.16-26.04-.18-.41-6.64-.15-13.29-.19-19.94.04-6.64-.22-13.29.19-19.92 8.61-.34 17.24.24 25.85-.27.08-14.27-.33-28.55.15-42.82m-161.45 46.44c11.09-4.14 22.62-7.54 34.51-8.16 7.65-.39 15.34-.42 22.98.32 11.77 1.3 23.77 4.09 33.7 10.83 11.72 7.82 19.2 20.71 22.82 34.1 4.06 13.77 4.71 28.22 4.81 42.49.06 24.66-.04 49.33.05 74-.02 2.31-.11 4.62-.19 6.93-16.39.18-32.79.17-49.18 0-.38-5.97-.14-11.95-.14-17.92-3.25 3.94-6.4 8.09-10.62 11.08-7.06 5.06-15.38 8.15-23.85 9.89-13.53 2.31-27.56.66-40.48-3.82-11.56-4.17-21.65-12.66-27.2-23.69-4.34-8.81-5.34-18.87-4.54-28.55.65-9.22 4.53-18.25 11-24.88 11.64-11.97 27.94-17.8 43.96-21.07 7.87-1.9 15.98-2.05 23.98-2.98 8.67-.99 17.4-.71 26.11-1.09.13-5.06-.29-10.41-3.22-14.72-3.65-5.74-10.27-8.75-16.67-10.24-10.56-2-21.78-.83-31.51 3.83-6.81 2.91-12.72 7.4-18.7 11.68-6.08-5.75-11.45-12.19-17.28-18.19-3.33-3.59-6.92-6.98-9.78-10.98 8.56-8.01 18.6-14.42 29.44-18.86m30.06 92.13c-5.4 1.55-10.65 4.27-14.33 8.6-3.67 4.22-4.23 10.37-2.85 15.62 1.09 4.36 4.79 7.45 8.68 9.36 5.58 2.82 12.02 3.04 18.15 2.68 7.18-.45 14.54-2.82 19.78-7.93 4.31-4.07 7.09-9.52 8.68-15.18 1.46-5.38 1.23-11.02 1.16-16.54-13.14-.27-26.55-.32-39.27 3.39m413.27-99.62c7.4-1.03 14.92-1.09 22.38-.75 7.9.34 15.6 2.36 23.19 4.49 11.35 3.29 22.33 8.8 30.72 17.27-4.45 5.84-9.58 11.13-14.28 16.77-5.61 6.35-10.92 12.97-16.7 19.17-1.94-1.73-3.84-3.5-5.87-5.09-7.13-5.51-16.25-8.36-25.26-7.72-11.21.31-21.37 7.14-27.64 16.16-3.87 5.92-6.73 12.64-7.39 19.73-1.11 10.8.57 22.33 6.79 31.44 6.54 10.04 18.26 16.62 30.3 16.55 7.1.17 14.25-1.36 20.63-4.52 3.63-1.83 6.59-4.67 9.61-7.34 4.44 4.5 8.09 9.68 12.22 14.46 5.83 7.2 11.98 14.16 17.58 21.55-11.97 11.82-28.73 17.28-45.01 19.88-21.36 2.85-43.78.13-63.06-9.83-15.5-7.84-28.25-20.96-35.58-36.7-7.07-13.61-9.05-29.3-8.45-44.45.67-22.23 10.35-44.27 27.03-59.12 13.42-12.28 31.03-19.05 48.79-21.95m-891.38 4.38c18.09-.01 36.18-.15 54.27.07.24 24.2.02 48.4.1 72.61.1 9.58-.42 19.23.87 28.76 1.08 7.05 4.02 14.39 10.06 18.59 3.83 2.83 8.69 3.68 13.36 3.6 6.13.07 12.64-1.34 17.22-5.69 7.88-7.45 11.8-18.51 11.73-29.23.03-23.35-.01-46.69.01-70.03.02-6.24-.17-12.49.17-18.73 17.91.02 35.81.03 53.72 0 .17 3.91.21 7.82.17 11.73-.1 50.65.09 101.3-.09 151.95-17.29.16-34.59.16-51.88 0-.35-7.42.22-14.85-.3-22.26-2.13 2.58-3.94 5.41-6.01 8.04-6.76 8.26-16.43 13.64-26.57 16.6-8.39 2.9-17.43 3.12-26.18 2.25-9.23-1.05-18.36-4.12-25.83-9.74-9.82-6.88-16.78-17.33-20.5-28.63-3.05-10.07-4.43-20.65-4.32-31.17.03-32.91.01-65.81 0-98.72m727.56-.14c17.93-.02 35.86-.15 53.79.07-.01 54.53-.03 109.06.01 163.59-8.23.46-16.47.1-24.7.2-9.72-.08-19.43.17-29.14-.1-.38-6.31-.16-12.63-.18-18.94-.01-41.67 0-83.34 0-125 .05-6.61-.25-13.22.22-19.82" fill="#f3434c"/><g fill="#fff"><path d="m150.86 188.92c7.37-.47 14.76-.16 22.14-.21 7.06.13 14.13-.17 21.19.21-3.14 4.54-7.03 8.49-10.49 12.77-3.73 4.41-7.22 9.04-11.4 13.04-7.6-8.21-14.72-16.88-21.44-25.81"/><path d="m31.9 203.49c10.65-1.22 21.39-1.16 32.09-1.06 16.84.22 33.46 3.44 49.78 7.42 12.61 3.02 24.44 8.89 34.99 16.37 10.87 7.74 19.49 18.84 23.2 31.76 3.18-5.84 5.29-12.29 9.52-17.51 11.89-15.75 30.14-25.39 48.83-30.62 9.35-2.09 18.64-4.61 28.2-5.65 13.39-2.07 26.96-1.93 40.47-1.73 15.47.28 30.77 2.9 46.04 5.15-5.27.89-10.62 1.08-15.89 1.91-35.2 5.52-68.21 22.26-94.64 45.98-10.22 9.55-19.77 19.92-27.44 31.66-4.86 7.53-10.26 14.84-13.46 23.29-2.82 7.1-6.36 13.92-8.56 21.26-2.22 7.33-4.2 14.74-5.81 22.22-3.38 14.58-4.72 29.52-6.77 44.31-1.46-5.77-1.39-11.78-2.25-17.65-2.58-19.35-6.3-38.66-12.99-57.06-2.46-6.88-5.96-13.33-8.94-19.99-2.78-6.43-7.19-11.91-10.95-17.75-15.67-23.15-37.21-42.06-61.52-55.73-18.56-10.23-38.8-17.66-59.83-20.62-5-.75-10.06-.92-15.06-1.71 10.3-1.64 20.63-3.1 30.99-4.25" stroke="#000" stroke-width=".2"/></g></svg>